<svg width="1200" height="750" viewBox="0 0 1200 750" fill="none" xmlns="http://www.w3.org/2000/svg">
  <rect width="1200" height="750" rx="28" fill="#F6F0E7"/>
  <rect x="146" y="132" width="908" height="520" rx="24" fill="#FFFFFF" stroke="#DED8CE" stroke-width="4"/>
  <rect x="246" y="470" width="708" height="42" rx="21" fill="#161616"/>
  <path d="M344 470L440 266H762L856 470H344Z" fill="#2D5D8F"/>
  <path d="M405 430L468 301H736L795 430H405Z" fill="#FBFAF7"/>
  <rect x="502" y="518" width="196" height="42" rx="10" fill="#213C36"/>
  <rect x="438" y="574" width="324" height="28" rx="14" fill="#C3912F"/>
  <circle cx="914" cy="190" r="54" fill="#E35D45"/>
  <path d="M879 190H949M914 155V225" stroke="#FFFFFF" stroke-width="16" stroke-linecap="round"/>
  <rect x="210" y="191" width="176" height="22" rx="11" fill="#161616"/>
  <rect x="210" y="235" width="250" height="18" rx="9" fill="#66615B" opacity=".65"/>
  <path d="M514 365L574 402L686 330" stroke="#E35D45" stroke-width="20" stroke-linecap="round" stroke-linejoin="round"/>
</svg>
